<?xml version="1.0" encoding="UTF-8"?>
<svg viewBox="0 0 136 136" fill="currentColor" xmlns="http://www.w3.org/2000/svg">
  <g fill="currentColor" stroke="none" transform="translate(-25 -28)">
    <g transform="translate(27.823 96.932)">
      <path
        d="M103.975593,1.08051513 L103.975593,4.5010327 C107.652911,5.08773678 110.351447,5.70033247 112.071201,6.33881978 L112.071848,32.4207386 C119.216403,32.7695203 125.545604,31.732617 131.059452,29.3100284 L124.616573,16.1245877 L131.058805,0 C123.060235,2.16940578 114.032497,2.52957749 103.975593,1.08051513 Z" />
      <path
        d="M0,4.41621644 L0,7.89457111 C3.47121291,7.7741566 6.54675985,7.44334176 9.22664083,6.9021266 L9.22664083,34.0497997 C15.5291853,33.7676596 21.4496419,32.6320571 26.9880107,30.6429921 L19.5470178,16.8426454 L26.9880107,0.0499587627 C17.9900211,2.96079722 8.99401755,4.41621644 0,4.41621644 Z"
        transform="matrix(-1 0 0 1 26.988 0)" />
      <path
        d="M110.050013,7.42593828 L110.050013,36.1276717 C97.1669823,34.4676682 83.4442061,34.4676682 68.8816845,36.1276717 C47.037902,38.617677 31.8816845,40.888361 19.8163807,38.6224496 C19.8458396,25.6976045 19.8645083,17.0320421 19.8723868,12.6257624 L19.8731045,12.2189943 C19.8732187,12.1533459 19.8733302,12.0887707 19.8734389,12.0252685 L19.8743442,11.4827241 C19.8744366,11.4256609 19.8745264,11.3696707 19.8746134,11.3147537 L19.8753229,10.8494752 C19.8753936,10.800997 19.8754616,10.7535919 19.8755268,10.70726 L19.8763016,10.0927665 C19.8763397,10.0571659 19.876375,10.0226385 19.8764076,9.98918423 L19.8767013,9.50290616 C33.4299261,11.341486 43.973787,9.72737186 68.8816845,6.73845865 C85.4869494,4.74584984 99.2097256,4.97500972 110.050013,7.42593828 Z M53.2018366,16.3726925 L51.8744572,23.7713422 L47.0266286,16.4985065 L46.8313304,16.5098167 L43.9104797,24.3675173 L41.0940124,18.8806182 C40.726824,18.0821656 41.2281479,17.5669872 41.7640916,17.5174291 L41.9478973,17.5004327 L41.9287353,17.2932067 L34.4194611,17.9875818 L34.4387971,18.1966897 L34.6060834,18.1812209 C35.2334072,18.1232129 36.029369,18.3950587 36.5069563,19.2014398 L41.7963311,30.0747748 C41.2824545,31.5580717 39.9614228,35.316915 37.1656345,36.0815889 L37.1849705,36.2906968 C40.4691934,36.8305916 42.4609598,32.8081097 43.039449,31.2686448 L46.174889,22.9650917 L51.8354675,31.6036138 L52.0328654,31.5853606 C51.9123248,30.281782 52.1286802,29.232393 52.1286802,29.232393 L54.8337149,16.2217943 C55.3446401,13.7646421 56.6712566,11.2316422 60.063146,10.6642899 L60.04381,10.455182 C55.5365069,10.2814592 53.6911642,13.6454818 53.2018366,16.3726925 Z M83.9640985,14.0382128 L78.9118427,14.3694131 L78.9239862,14.5546554 L79.1264118,14.5413854 C79.700789,14.5037321 79.9995464,15.006486 79.6980016,15.4949277 L75.1353462,22.652622 L80.160422,28.7415303 C83.7462146,33.0774542 87.2124066,34.9757808 91.764654,31.9835889 L91.7076195,31.7556217 C88.8319388,31.7126409 86.9390726,30.5108879 83.5887584,26.4122785 L78.3420088,19.9948672 L81.6496688,15.4170733 C82.1492929,14.7655954 82.9603082,14.2959475 83.8847063,14.233244 L83.9764894,14.2272272 L83.9640985,14.0382128 Z M64.9520933,15.341737 L57.4562949,16.0990728 L57.4807478,16.3076713 L57.7450521,16.2809674 C58.473404,16.2073786 59.1236512,16.7290864 59.214953,17.4510052 L60.385999,29.0415374 C60.4457346,29.7706558 59.9115687,30.416674 59.1802917,30.4905584 L58.9159874,30.5172623 L58.9337542,30.7265363 L66.4301794,29.9691372 L66.4057265,29.7605384 L66.1414222,29.7872423 C65.4101451,29.8611266 64.7575531,29.3350121 64.6704469,28.6086591 L63.4989576,17.0137394 C63.44652,16.2900049 63.9786666,15.651156 64.7055558,15.5777149 L64.9698601,15.551011 L64.9520933,15.341737 Z M75.5474998,14.5897517 L68.0296763,15.082582 L68.0467663,15.2919124 L68.3154098,15.2743015 C69.0422296,15.2249713 69.6736965,15.76926 69.7395124,16.4939468 L70.5015614,28.1185357 C70.5355772,28.8493058 69.9789871,29.4761074 69.2455614,29.5241871 L68.9804805,29.5415644 L68.9908646,29.7513344 L76.5093167,29.2584629 L76.4922268,29.0491324 L76.2275648,29.0664823 C75.4935379,29.1150224 74.859883,28.5662472 74.7984162,27.8372767 L74.0363705,16.2095306 C74.0094586,15.4843981 74.563778,14.8646902 75.2928031,14.816899 L75.557884,14.7995217 L75.5474998,14.5897517 Z M94.5308299,13.5124972 L87.0015378,13.7776613 L87.012287,13.987413 L87.2777722,13.9780632 C88.0093787,13.9522977 88.6240898,14.5154414 88.6679513,15.2417876 L89.0779667,26.8841101 C89.0898585,27.6155748 88.5145603,28.2252507 87.7800157,28.2511197 L87.5145304,28.2604694 L87.5185635,28.4704576 L95.0484852,28.2052713 L95.0377361,27.9955193 L94.7722508,28.0048691 C94.0377062,28.0307381 93.4209437,27.4630437 93.381559,26.7325473 L92.9713883,15.0858177 C92.9664265,14.360203 93.5392406,13.7575489 94.2693778,13.7318351 L94.5348631,13.7224854 L94.5308299,13.5124972 Z" />
    </g>
    <g fill="currentColor" stroke="none" transform="translate(37.115 59.715)">
      <path
        d="M97.7215531.791770219C102.142735.791770219 108.876646 2.40153727 110.359219 9.8369083 111.841791 17.2722793 110.916868 26.7750812 109.503791 30.6926423 108.090714 34.6102034 105.298177 36.8391446 102.478762 36.8391446 99.6593477 36.8391446 90.7257011 36.3325202 89.1635248 34.1774516 87.6013484 32.022383 85.3517614 27.0109343 85.3517614 23.0927583 85.3517614 19.1745823 85.0337665 15.4247116 86.0791485 10.8080985 87.1245304 6.19148549 93.3003708.791770219 97.7215531.791770219zM98.0191134 11.1441685C94.7886714 11.1441685 92.8691334 12.7125715 92.5648164 15.3343795 92.3073174 17.5348255 93.3139044 19.1266375 95.4345257 20.376444L99.2513632 22.60779C103.192502 24.8384335 101.787962 28.9818265 97.5041154 28.9818265 93.3139044 28.9818265 90.209403 25.0491145 92.4854599 20.9394305L92.2747789 20.7755675C89.319861 24.9320695 91.7920855 30.2927305 98.0422885 30.2927305 105.603395 30.2927305 108.669974 22.4038975 102.598616 18.9576245L98.2232396 16.4690137C97.1291028 15.8493775 96.0522888 15.4046065 96.1459248 14.2809745 96.2395608 13.1339335 97.4100108 12.3146185 99.3295488 12.3146185 101.64704 12.3146185 103.05158 13.4850685 103.06188 15.1932232L103.287309 15.1932232 103.792475 11.3843447 101.970552 11.3843447C100.612128 11.2488067 98.8620714 11.1441685 98.0191134 11.1441685zM74.3465599.20096138C76.891794 1.04743496 82.5235229 6.23949527 83.7006189 13.4486204 84.8777148 20.6577455 83.1028308 27.9327659 81.1024898 30.5543029L80.9929718 30.701035C79.7178944 29.7060233 78.5673701 28.4326805 77.4315442 26.9651577 75.2226067 24.2215312 73.8927003 22.0522286 71.6002019 20.8334 74.2009419 21.0118823 76.4575925 18.9751159 76.4575925 16.0133723 76.4575925 12.4187368 73.01165 11.3036652 69.9979017 11.3036652L61.3461869 11.3041698 61.3461869 11.5576295 61.6561954 11.5576295C62.5369935 11.5604064 63.2539513 12.2644895 63.2706131 13.1437728L63.2706131 27.1491939C63.2463777 28.0431195 62.5160401 28.7252395 61.6559427 28.7252395L61.3338167 28.7252395 61.3338167 28.9776895 69.0088017 28.9776895 69.0047624 28.7252395 68.6932392 28.7252395C67.7849242 28.7254918 67.0818508 27.9979307 67.0682186 27.1380861L67.0682186 12.4169691 68.981537 12.4169691C70.8064979 12.4205034 72.3275092 13.6827534 72.4186436 15.9512691 72.4438886 16.5399827 72.3734552 16.9277459 72.3285192 17.174642 71.8811777 19.497182 69.8885901 20.0573686 68.681374 20.0911968 68.3711131 20.1111402 68.0055656 20.0952357 67.9078676 20.098265L67.9078676 20.3350632C68.3701035 20.4554819 68.8144156 21.0681782 69.3024015 21.8464816 70.2879662 23.2490937 72.5668324 26.736438 73.8709892 28.6285507 75.4510523 31.0166369 77.2593207 32.4954214 79.078554 33.3332723 77.6210991 35.2652289 75.9833841 36.9983208 73.887059 36.9983208 70.7737622 36.9983208 60.3139388 37.8634544 58.414876 34.4893422 56.5158133 31.11523 56.6288512 29.3462066 55.6870447 26.1383462 54.7452383 22.9304859 53.4562173 18.9081426 55.183851 15.7806406 56.9114847 12.6531386 60.4307703 5.63910482 63.5983899 3.48076792 66.7660094 1.32243103 71.8013259-.645512204 74.3465599.20096138z" />
      <path
        d="M54.7753397 4.42278152C56.7027221 8.83075079 55.3622972 11.6320471 53.9685645 13.8804217 52.5748318 16.1287963 52.4073205 19.664846 52.8479573 23.1412253 53.288594 26.6176046 56.8203054 31.8897881 53.9685645 37.0486691 51.1168236 42.2075502 32.8852668 36.943808 32.3273837 31.9476309 32.1530453 30.3863255 31.9584949 29.1974353 31.7538514 28.0582685L31.6714798 27.6044887C31.6576694 27.5290458 31.6438202 27.4536326 31.6299352 27.3781536L31.5462184 26.9237245C31.1537557 24.792229 30.737877 22.4591912 30.3643981 17.8257281 29.7241486 9.88264836 37.5660349 3.34697315 41.4390149 1.91992646 45.3119948.492879777 52.8479573.0148122566 54.7753397 4.42278152zM41.9607851 11.6601685C38.7303431 11.6601685 36.8108051 13.2285715 36.5064881 15.8503795 36.2489891 18.0508255 37.2555761 19.6426375 39.3761973 20.892444L43.1930349 23.12379C47.1341741 25.3544335 45.7296341 29.4978265 41.4457871 29.4978265 37.2555761 29.4978265 34.1510746 25.5651145 36.4271316 21.4554305L36.2164506 21.2915675C33.2615326 25.4480695 35.7337571 30.8087305 41.9839601 30.8087305 49.5450671 30.8087305 52.6116461 22.9198975 46.5402879 19.4736245L42.1649113 16.9850137C41.0707745 16.3653775 39.9939605 15.9206065 40.0875965 14.7969745 40.1812325 13.6499335 41.3516825 12.8306185 43.2712205 12.8306185 45.5887115 12.8306185 46.9932515 14.0010685 47.0035515 15.7092232L47.2289803 15.7092232 47.7341465 11.9003447 45.912224 11.9003447C44.5537998 11.7648067 42.8037431 11.6601685 41.9607851 11.6601685zM27.1456284 7.62811121C28.472237 10.0559841 28.571159 14.007182 28.5771276 16.3522008L28.5772216 17.1216129C28.5772216 19.2658204 30.0246621 28.215556 28.5772216 31.9004646 27.1297811 35.5853731 25.434364 38.3491632 21.2703691 39.2277017 17.1063741 40.1062402 6.46399803 37.612106 4.00537639 33.8517586 1.54675475 30.0914112 0 23.2688889 0 17.5753337 0 11.8817785 5.02778298 2.63700496 13.3202097 1.69122736 21.6126364.745449754 25.6598267 4.90889355 27.1456284 7.62811121zM24.8239567 20.9574397C24.8239567 14.9054329 18.8374951 12.4147153 15.2980543 13.1138641 12.0863395 13.7474677 11.2997971 16.8717889 12.7184135 19.2432141L12.9805943 19.2432141C12.2611267 16.8717889 13.0476691 14.4903133 15.3635995 14.2062841 18.1820431 13.8567097 19.9954603 16.9373341 19.9954603 20.9574397 19.9954603 25.2178777 17.9417107 27.9270793 14.9266315 27.9270793 11.7367651 27.9270793 9.74856066 24.8683033 9.74856066 20.2582909 9.74856066 17.3961505 10.5132547 14.7524941 11.7243113 13.4887827L11.5932209 13.2702987C7.65111426 13.9441033 4.92006426 17.0028793 4.92006426 21.0011365 4.92006426 25.8077845 8.91832146 29.0194993 14.9047831 29.0194993 20.8475479 29.0194993 24.8239567 25.8733297 24.8239567 20.9574397z" />
    </g>
  </g>
</svg>