<svg viewBox="0 0 133 360" fill="currentColor" xmlns="http://www.w3.org/2000/svg" alt="Wise Old Man Logo">
  <g fill="currentColor" stroke="none">
    <path
      d="M31.5 254.5V207l12 7L62 199h11.5l30 21.5 29-32L131 209v11.5l-4 13.5-3.5 2.5v18l-4 7.5v16.5l-8.5 8-7.5 5.5 3 15 2 23.5h-5l-11 2-2 14-9 10L66 342l-15 7.5-2-21-3.5-4-15.5-9 1.5-5.5v-12l3-4v-9.5l-10-15 7-15Z">
    </path>
    <path d=" m39 17.5-12.5 34 15.5 22h81l7-28.5-11.5-32.5-14.5 38L76.5 11l-14 45L39 17.5Z"></path>
    <path
      d="M17.5 90.5V107c23.167 9.833 78.5 22 114.5-8 .336-.28.669-.56 1-.84V90.5H17.5Zm27-23.06L17.5 31v59.5H133V67.44L131 43l-2-10.5-7 29L104.5 31l-20 41L63 37 44.5 67.44Z">
    </path>
    <path
      d="M61 159c0 16.845-13.655 30.5-30.5 30.5S0 175.845 0 159s13.655-30.5 30.5-30.5S61 142.155 61 159Zm64 4c0 16.845-13.655 30.5-30.5 30.5S64 179.845 64 163s13.655-30.5 30.5-30.5S125 146.155 125 163Z">
    </path>
    <path d="m66.783 150.254-7.292-.754.449 17.5 4.56 1 2.283-17.746Z"></path>
    <path
      d="M27 180.5c11.598 0 21-9.402 21-21s-9.402-21-21-21-21 9.402-21 21 9.402 21 21 21ZM91 184.5c11.598 0 21-9.402 21-21s-9.402-21-21-21-21 9.402-21 21 9.402 21 21 21Z">
    </path>
  </g>
</svg>